Coordinates
nRows=4
nColumns=38

# SIMM Motion File Header:
name Coordinates
datacolumns 38
datarows 4
otherdata 1
range 0.18854000000000001000 0.19154000000000002000

Units are S.I. units (second, meters, Newtons, ...)
Angles are in degrees.

endheader
time	pelvis_tilt	pelvis_list	pelvis_rotation	pelvis_tx	pelvis_ty	pelvis_tz	hip_flexion_r	hip_adduction_r	hip_rotation_r	knee_angle_r	ankle_angle_r	subtalar_angle_r	mtp_angle_r	hip_flexion_l	hip_adduction_l	hip_rotation_l	knee_angle_l	ankle_angle_l	subtalar_angle_l	mtp_angle_l	lumbar_extension	lumbar_bending	lumbar_rotation	arm_flex_r	arm_add_r	arm_rot_r	elbow_flex_r	pro_sup_r	wrist_flex_r	wrist_dev_r	arm_flex_l	arm_add_l	arm_rot_l	elbow_flex_l	pro_sup_l	wrist_flex_l	wrist_dev_l
      0.18854000000000001000	     -6.81147649236817900000	     -4.54874027912468740000	     -5.87838182190727570000	      1.17684312180137220000	      1.01531782043701010000	     -0.31103466311910960000	     36.84033528143364600000	      9.17161734452538550000	     -3.52733357993686170000	    -14.08699387608795700000	    -18.11747622530477000000	      0.00000000000000000000	      0.00000000000000000000	     -8.12777439995306320000	      2.66810705986671380000	     -3.44035474551667560000	    -76.04992545177265100000	    -34.39352951040722700000	      0.00000000000000000000	      0.00000000000000000000	     -3.34987511717472590000	      7.10436554573237000000	    -10.38058233037143600000	    -51.13854933241552900000	    -10.09753630096758700000	    -20.53965315304389700000	     74.02481114666660700000	     60.06578323984170700000	      0.00000000000000000000	      0.00000000000000000000	    -21.45165127556583300000	    -19.65088372793265800000	      7.23830240647609810000	    134.41310861721925000000	     87.74466753397985000000	      0.00000000000000000000	      0.00000000000000000000
      0.18954000000000001000	     -6.70085482124707180000	     -4.60249177615084550000	     -5.91929999986096520000	      1.17675822755937310000	      1.01489380279129240000	     -0.31100159966627855000	     36.66278388076909800000	      9.24714416602149920000	     -3.52718238989905060000	    -14.28690867089883000000	    -18.19815543466626600000	     -0.00000000000000000149	      0.00000000000000000044	     -8.00375626832765800000	      2.55235135868267050000	     -3.61235462598370290000	    -76.84051143159129500000	    -34.24036618590306300000	      0.00000000000000000015	     -0.00000000000000000006	     -3.48981689713822350000	      7.18912676733219150000	    -10.21146018396273400000	    -51.02675547782723700000	    -10.07504755891298700000	    -20.47462877113305200000	     74.01949387248276900000	     60.09256306028980500000	      0.00000000000000000017	     -0.00000000000000000026	    -21.60934956332666700000	    -19.60588634926695000000	      7.18085356233020810000	    133.93290048850315000000	     87.73829254646058500000	      0.00000000000000000040	      0.00000000000000000036
      0.19054000000000001000	     -6.59115571450270110000	     -4.65698921421483990000	     -5.96196078969167600000	      1.17667385114636680000	      1.01446007209947450000	     -0.31096699830229796000	     36.48590350793840300000	      9.32472792932030710000	     -3.51486372550870780000	    -14.49352714993856100000	    -18.27790400312700600000	     -0.00000000000000000902	      0.00000000000000000295	     -7.87910034708929710000	      2.43565718666434130000	     -3.78241106054341400000	    -77.62943129541668000000	    -34.07589189078951400000	     -0.00000000000000000345	     -0.00000000000000000509	     -3.62883828594225570000	      7.27485043823429840000	    -10.03993246139235000000	    -50.91289492791977300000	    -10.05528382993036000000	    -20.40854078182835400000	     74.01314972908389200000	     60.12656892193516700000	      0.00000000000000000199	      0.00000000000000000018	    -21.76666719086205900000	    -19.55965908619262800000	      7.12351561792383060000	    133.44970783589318000000	     87.74029155647109200000	      0.00000000000000000214	     -0.00000000000000000066
      0.19154000000000002000	     -6.48228351543149460000	     -4.71220943953492990000	     -6.00637968766421880000	      1.17658994636539620000	      1.01401688052180790000	     -0.31093103438297626000	     36.30953343309063500000	      9.40423528024947690000	     -3.49149894104938020000	    -14.70650771269027300000	    -18.36009690055610500000	     -0.00000000000000001031	      0.00000000000000000369	     -7.75389435531871470000	      2.31806423558961770000	     -3.95064767226356130000	    -78.41666156655421100000	    -33.90016961836114000000	     -0.00000000000000001067	     -0.00000000000000001175	     -3.76707853684924520000	      7.36151329225664060000	     -9.86600148422881600000	    -50.79690895548872500000	    -10.03829500870112700000	    -20.34137955284930000000	     74.00581920000370000000	     60.16773132166483200000	      0.00000000000000000462	      0.00000000000000000307	    -21.92358954163230700000	    -19.51219751769557600000	      7.06637807389206960000	    132.96359814459325000000	     87.75063266734653700000	      0.00000000000000000562	     -0.00000000000000000268
